<mxfile host="Electron" modified="2024-01-02T13:00:46.898Z" agent="Mozilla/5.0 (Windows NT 10.0; Win64; x64) AppleWebKit/537.36 (KHTML, like Gecko) draw.io/22.1.2 Chrome/114.0.5735.289 Electron/25.9.4 Safari/537.36" etag="It3bMwfjAy4MawNTH5cW" version="22.1.2" type="device">
  <diagram name="Page-1" id="7h99E_FBtP_rNtK2KSog">
    <mxGraphModel dx="367" dy="302" grid="1" gridSize="10" guides="1" tooltips="1" connect="1" arrows="1" fold="1" page="1" pageScale="1" pageWidth="827" pageHeight="1169" math="0" shadow="0">
      <root>
        <mxCell id="0" />
        <mxCell id="1" parent="0" />
        <mxCell id="vLFiFbukNMR0kvkJJkpE-280" style="edgeStyle=none;rounded=0;orthogonalLoop=1;jettySize=auto;html=1;entryX=1;entryY=0.5;entryDx=0;entryDy=0;exitX=0;exitY=0.5;exitDx=0;exitDy=0;" parent="1" source="vLFiFbukNMR0kvkJJkpE-1" target="vLFiFbukNMR0kvkJJkpE-21" edge="1">
          <mxGeometry relative="1" as="geometry">
            <mxPoint x="350" y="150" as="targetPoint" />
          </mxGeometry>
        </mxCell>
        <mxCell id="vLFiFbukNMR0kvkJJkpE-281" style="edgeStyle=none;rounded=0;orthogonalLoop=1;jettySize=auto;html=1;entryX=1;entryY=0;entryDx=0;entryDy=0;exitX=0;exitY=1;exitDx=0;exitDy=0;" parent="1" source="vLFiFbukNMR0kvkJJkpE-1" target="vLFiFbukNMR0kvkJJkpE-83" edge="1">
          <mxGeometry relative="1" as="geometry" />
        </mxCell>
        <mxCell id="vLFiFbukNMR0kvkJJkpE-282" style="edgeStyle=none;rounded=0;orthogonalLoop=1;jettySize=auto;html=1;entryX=0;entryY=0.5;entryDx=0;entryDy=0;exitX=1;exitY=0.5;exitDx=0;exitDy=0;" parent="1" source="vLFiFbukNMR0kvkJJkpE-1" target="vLFiFbukNMR0kvkJJkpE-158" edge="1">
          <mxGeometry relative="1" as="geometry" />
        </mxCell>
        <mxCell id="vLFiFbukNMR0kvkJJkpE-283" style="edgeStyle=none;rounded=0;orthogonalLoop=1;jettySize=auto;html=1;entryX=0;entryY=0;entryDx=0;entryDy=0;exitX=1;exitY=1;exitDx=0;exitDy=0;" parent="1" source="vLFiFbukNMR0kvkJJkpE-1" target="vLFiFbukNMR0kvkJJkpE-223" edge="1">
          <mxGeometry relative="1" as="geometry" />
        </mxCell>
        <mxCell id="vLFiFbukNMR0kvkJJkpE-1" value="broadcaster" style="ellipse;whiteSpace=wrap;html=1;" parent="1" vertex="1">
          <mxGeometry x="400" y="140" width="80" height="30" as="geometry" />
        </mxCell>
        <mxCell id="vLFiFbukNMR0kvkJJkpE-49" style="edgeStyle=none;rounded=0;orthogonalLoop=1;jettySize=auto;html=1;entryX=1;entryY=0.5;entryDx=0;entryDy=0;" parent="1" source="vLFiFbukNMR0kvkJJkpE-2" target="vLFiFbukNMR0kvkJJkpE-12" edge="1">
          <mxGeometry relative="1" as="geometry" />
        </mxCell>
        <mxCell id="vLFiFbukNMR0kvkJJkpE-2" value="lk" style="ellipse;whiteSpace=wrap;html=1;" parent="1" vertex="1">
          <mxGeometry x="188" y="40" width="20" height="20" as="geometry" />
        </mxCell>
        <mxCell id="vLFiFbukNMR0kvkJJkpE-50" style="edgeStyle=none;rounded=0;orthogonalLoop=1;jettySize=auto;html=1;entryX=1;entryY=0;entryDx=0;entryDy=0;" parent="1" source="vLFiFbukNMR0kvkJJkpE-12" target="vLFiFbukNMR0kvkJJkpE-13" edge="1">
          <mxGeometry relative="1" as="geometry" />
        </mxCell>
        <mxCell id="vLFiFbukNMR0kvkJJkpE-12" value="hc" style="ellipse;whiteSpace=wrap;html=1;" parent="1" vertex="1">
          <mxGeometry x="138" y="50" width="20" height="20" as="geometry" />
        </mxCell>
        <mxCell id="vLFiFbukNMR0kvkJJkpE-51" style="edgeStyle=none;rounded=0;orthogonalLoop=1;jettySize=auto;html=1;entryX=0.5;entryY=0;entryDx=0;entryDy=0;" parent="1" source="vLFiFbukNMR0kvkJJkpE-13" target="vLFiFbukNMR0kvkJJkpE-14" edge="1">
          <mxGeometry relative="1" as="geometry" />
        </mxCell>
        <mxCell id="vLFiFbukNMR0kvkJJkpE-13" value="kb" style="ellipse;whiteSpace=wrap;html=1;" parent="1" vertex="1">
          <mxGeometry x="98" y="90" width="20" height="20" as="geometry" />
        </mxCell>
        <mxCell id="vLFiFbukNMR0kvkJJkpE-52" style="edgeStyle=none;rounded=0;orthogonalLoop=1;jettySize=auto;html=1;entryX=0.5;entryY=0;entryDx=0;entryDy=0;" parent="1" source="vLFiFbukNMR0kvkJJkpE-14" target="vLFiFbukNMR0kvkJJkpE-15" edge="1">
          <mxGeometry relative="1" as="geometry" />
        </mxCell>
        <mxCell id="vLFiFbukNMR0kvkJJkpE-101" style="edgeStyle=none;rounded=0;orthogonalLoop=1;jettySize=auto;html=1;exitX=1;exitY=0.5;exitDx=0;exitDy=0;entryX=-0.012;entryY=0.346;entryDx=0;entryDy=0;entryPerimeter=0;fillColor=#0050ef;strokeColor=#001DBC;" parent="1" source="vLFiFbukNMR0kvkJJkpE-14" target="vLFiFbukNMR0kvkJJkpE-20" edge="1">
          <mxGeometry relative="1" as="geometry" />
        </mxCell>
        <mxCell id="vLFiFbukNMR0kvkJJkpE-14" value="pc" style="ellipse;whiteSpace=wrap;html=1;" parent="1" vertex="1">
          <mxGeometry x="88" y="140" width="20" height="20" as="geometry" />
        </mxCell>
        <mxCell id="vLFiFbukNMR0kvkJJkpE-53" style="edgeStyle=none;rounded=0;orthogonalLoop=1;jettySize=auto;html=1;entryX=0;entryY=0;entryDx=0;entryDy=0;" parent="1" source="vLFiFbukNMR0kvkJJkpE-15" target="vLFiFbukNMR0kvkJJkpE-16" edge="1">
          <mxGeometry relative="1" as="geometry" />
        </mxCell>
        <mxCell id="vLFiFbukNMR0kvkJJkpE-15" value="rz" style="ellipse;whiteSpace=wrap;html=1;" parent="1" vertex="1">
          <mxGeometry x="98" y="190" width="20" height="20" as="geometry" />
        </mxCell>
        <mxCell id="vLFiFbukNMR0kvkJJkpE-54" style="edgeStyle=none;rounded=0;orthogonalLoop=1;jettySize=auto;html=1;entryX=0;entryY=0.5;entryDx=0;entryDy=0;" parent="1" source="vLFiFbukNMR0kvkJJkpE-16" target="vLFiFbukNMR0kvkJJkpE-17" edge="1">
          <mxGeometry relative="1" as="geometry" />
        </mxCell>
        <mxCell id="vLFiFbukNMR0kvkJJkpE-16" value="fr" style="ellipse;whiteSpace=wrap;html=1;" parent="1" vertex="1">
          <mxGeometry x="138" y="230" width="20" height="20" as="geometry" />
        </mxCell>
        <mxCell id="vLFiFbukNMR0kvkJJkpE-55" style="edgeStyle=none;rounded=0;orthogonalLoop=1;jettySize=auto;html=1;entryX=0;entryY=0.5;entryDx=0;entryDy=0;" parent="1" source="vLFiFbukNMR0kvkJJkpE-17" target="vLFiFbukNMR0kvkJJkpE-18" edge="1">
          <mxGeometry relative="1" as="geometry" />
        </mxCell>
        <mxCell id="vLFiFbukNMR0kvkJJkpE-17" value="mr" style="ellipse;whiteSpace=wrap;html=1;" parent="1" vertex="1">
          <mxGeometry x="188" y="240" width="20" height="20" as="geometry" />
        </mxCell>
        <mxCell id="vLFiFbukNMR0kvkJJkpE-56" style="edgeStyle=none;rounded=0;orthogonalLoop=1;jettySize=auto;html=1;entryX=0;entryY=1;entryDx=0;entryDy=0;" parent="1" source="vLFiFbukNMR0kvkJJkpE-18" target="vLFiFbukNMR0kvkJJkpE-19" edge="1">
          <mxGeometry relative="1" as="geometry" />
        </mxCell>
        <mxCell id="vLFiFbukNMR0kvkJJkpE-104" style="edgeStyle=none;rounded=0;orthogonalLoop=1;jettySize=auto;html=1;exitX=0.5;exitY=0;exitDx=0;exitDy=0;entryX=0.311;entryY=0.94;entryDx=0;entryDy=0;entryPerimeter=0;fillColor=#0050ef;strokeColor=#001DBC;" parent="1" source="vLFiFbukNMR0kvkJJkpE-18" target="vLFiFbukNMR0kvkJJkpE-20" edge="1">
          <mxGeometry relative="1" as="geometry" />
        </mxCell>
        <mxCell id="vLFiFbukNMR0kvkJJkpE-18" value="jd" style="ellipse;whiteSpace=wrap;html=1;" parent="1" vertex="1">
          <mxGeometry x="232" y="232" width="20" height="20" as="geometry" />
        </mxCell>
        <mxCell id="vLFiFbukNMR0kvkJJkpE-57" style="edgeStyle=none;rounded=0;orthogonalLoop=1;jettySize=auto;html=1;entryX=0.5;entryY=1;entryDx=0;entryDy=0;" parent="1" source="vLFiFbukNMR0kvkJJkpE-19" target="vLFiFbukNMR0kvkJJkpE-20" edge="1">
          <mxGeometry relative="1" as="geometry" />
        </mxCell>
        <mxCell id="vLFiFbukNMR0kvkJJkpE-19" value="mf" style="ellipse;whiteSpace=wrap;html=1;" parent="1" vertex="1">
          <mxGeometry x="270" y="201" width="20" height="20" as="geometry" />
        </mxCell>
        <mxCell id="vLFiFbukNMR0kvkJJkpE-58" style="edgeStyle=none;rounded=0;orthogonalLoop=1;jettySize=auto;html=1;entryX=0.764;entryY=1.005;entryDx=0;entryDy=0;entryPerimeter=0;fillColor=#ffe6cc;strokeColor=#d79b00;" parent="1" source="vLFiFbukNMR0kvkJJkpE-20" target="vLFiFbukNMR0kvkJJkpE-21" edge="1">
          <mxGeometry relative="1" as="geometry" />
        </mxCell>
        <mxCell id="_b43t_OURAf0LPRaJytC-1" value="1" style="edgeLabel;html=1;align=center;verticalAlign=middle;resizable=0;points=[];" parent="vLFiFbukNMR0kvkJJkpE-58" vertex="1" connectable="0">
          <mxGeometry x="0.0822" y="-1" relative="1" as="geometry">
            <mxPoint x="5" y="4" as="offset" />
          </mxGeometry>
        </mxCell>
        <mxCell id="vLFiFbukNMR0kvkJJkpE-106" style="edgeStyle=none;rounded=0;orthogonalLoop=1;jettySize=auto;html=1;exitX=0;exitY=0;exitDx=0;exitDy=0;entryX=0.5;entryY=1;entryDx=0;entryDy=0;fillColor=#ffe6cc;strokeColor=#d79b00;" parent="1" source="vLFiFbukNMR0kvkJJkpE-20" target="vLFiFbukNMR0kvkJJkpE-23" edge="1">
          <mxGeometry relative="1" as="geometry" />
        </mxCell>
        <mxCell id="_b43t_OURAf0LPRaJytC-2" value="4" style="edgeLabel;html=1;align=center;verticalAlign=middle;resizable=0;points=[];" parent="vLFiFbukNMR0kvkJJkpE-106" vertex="1" connectable="0">
          <mxGeometry x="0.5594" relative="1" as="geometry">
            <mxPoint x="1" y="7" as="offset" />
          </mxGeometry>
        </mxCell>
        <mxCell id="vLFiFbukNMR0kvkJJkpE-107" style="edgeStyle=none;rounded=0;orthogonalLoop=1;jettySize=auto;html=1;exitX=0.008;exitY=0.301;exitDx=0;exitDy=0;entryX=1.004;entryY=0.686;entryDx=0;entryDy=0;exitPerimeter=0;entryPerimeter=0;fillColor=#ffe6cc;strokeColor=#d79b00;" parent="1" source="vLFiFbukNMR0kvkJJkpE-20" target="vLFiFbukNMR0kvkJJkpE-13" edge="1">
          <mxGeometry relative="1" as="geometry" />
        </mxCell>
        <mxCell id="_b43t_OURAf0LPRaJytC-4" value="32" style="edgeLabel;html=1;align=center;verticalAlign=middle;resizable=0;points=[];" parent="vLFiFbukNMR0kvkJJkpE-107" vertex="1" connectable="0">
          <mxGeometry x="0.4053" y="-1" relative="1" as="geometry">
            <mxPoint x="-21" y="-7" as="offset" />
          </mxGeometry>
        </mxCell>
        <mxCell id="vLFiFbukNMR0kvkJJkpE-270" style="edgeStyle=none;rounded=0;orthogonalLoop=1;jettySize=auto;html=1;entryX=0;entryY=0;entryDx=0;entryDy=0;" parent="1" source="vLFiFbukNMR0kvkJJkpE-20" target="gAliYxZheVsyIceWktLf-1" edge="1">
          <mxGeometry relative="1" as="geometry">
            <mxPoint x="402.92893218813447" y="322.92893218813447" as="targetPoint" />
          </mxGeometry>
        </mxCell>
        <mxCell id="vLFiFbukNMR0kvkJJkpE-20" value="zp" style="ellipse;whiteSpace=wrap;html=1;fillStyle=auto;fillColor=#050505;strokeColor=#FFFFFF;fontColor=#F7F7F7;" parent="1" vertex="1">
          <mxGeometry x="287" y="159" width="20" height="20" as="geometry" />
        </mxCell>
        <mxCell id="vLFiFbukNMR0kvkJJkpE-59" style="edgeStyle=none;rounded=0;orthogonalLoop=1;jettySize=auto;html=1;entryX=1;entryY=1;entryDx=0;entryDy=0;" parent="1" source="vLFiFbukNMR0kvkJJkpE-21" target="vLFiFbukNMR0kvkJJkpE-22" edge="1">
          <mxGeometry relative="1" as="geometry" />
        </mxCell>
        <mxCell id="vLFiFbukNMR0kvkJJkpE-21" value="vl" style="ellipse;whiteSpace=wrap;html=1;" parent="1" vertex="1">
          <mxGeometry x="286" y="114" width="20" height="20" as="geometry" />
        </mxCell>
        <mxCell id="vLFiFbukNMR0kvkJJkpE-60" style="edgeStyle=none;rounded=0;orthogonalLoop=1;jettySize=auto;html=1;entryX=1;entryY=1;entryDx=0;entryDy=0;" parent="1" source="vLFiFbukNMR0kvkJJkpE-22" target="vLFiFbukNMR0kvkJJkpE-23" edge="1">
          <mxGeometry relative="1" as="geometry" />
        </mxCell>
        <mxCell id="vLFiFbukNMR0kvkJJkpE-99" style="edgeStyle=none;rounded=0;orthogonalLoop=1;jettySize=auto;html=1;exitX=0.5;exitY=1;exitDx=0;exitDy=0;entryX=0.22;entryY=0.054;entryDx=0;entryDy=0;entryPerimeter=0;fillColor=#0050ef;strokeColor=#001DBC;" parent="1" source="vLFiFbukNMR0kvkJJkpE-22" target="vLFiFbukNMR0kvkJJkpE-20" edge="1">
          <mxGeometry relative="1" as="geometry">
            <mxPoint x="290" y="160" as="targetPoint" />
          </mxGeometry>
        </mxCell>
        <mxCell id="vLFiFbukNMR0kvkJJkpE-22" value="lv" style="ellipse;whiteSpace=wrap;html=1;" parent="1" vertex="1">
          <mxGeometry x="268" y="77" width="20" height="20" as="geometry" />
        </mxCell>
        <mxCell id="vLFiFbukNMR0kvkJJkpE-61" style="edgeStyle=none;rounded=0;orthogonalLoop=1;jettySize=auto;html=1;entryX=1;entryY=0.5;entryDx=0;entryDy=0;" parent="1" source="vLFiFbukNMR0kvkJJkpE-23" target="vLFiFbukNMR0kvkJJkpE-2" edge="1">
          <mxGeometry relative="1" as="geometry" />
        </mxCell>
        <mxCell id="vLFiFbukNMR0kvkJJkpE-23" value="rd" style="ellipse;whiteSpace=wrap;html=1;" parent="1" vertex="1">
          <mxGeometry x="238" y="50" width="20" height="20" as="geometry" />
        </mxCell>
        <mxCell id="vLFiFbukNMR0kvkJJkpE-62" style="edgeStyle=none;rounded=0;orthogonalLoop=1;jettySize=auto;html=1;entryX=1;entryY=0.5;entryDx=0;entryDy=0;" parent="1" source="vLFiFbukNMR0kvkJJkpE-63" target="vLFiFbukNMR0kvkJJkpE-65" edge="1">
          <mxGeometry relative="1" as="geometry" />
        </mxCell>
        <mxCell id="vLFiFbukNMR0kvkJJkpE-63" value="nb" style="ellipse;whiteSpace=wrap;html=1;" parent="1" vertex="1">
          <mxGeometry x="188.5" y="360" width="20" height="20" as="geometry" />
        </mxCell>
        <mxCell id="vLFiFbukNMR0kvkJJkpE-64" style="edgeStyle=none;rounded=0;orthogonalLoop=1;jettySize=auto;html=1;entryX=1;entryY=0;entryDx=0;entryDy=0;" parent="1" source="vLFiFbukNMR0kvkJJkpE-65" target="vLFiFbukNMR0kvkJJkpE-67" edge="1">
          <mxGeometry relative="1" as="geometry" />
        </mxCell>
        <mxCell id="vLFiFbukNMR0kvkJJkpE-65" value="qj" style="ellipse;whiteSpace=wrap;html=1;" parent="1" vertex="1">
          <mxGeometry x="138.5" y="370" width="20" height="20" as="geometry" />
        </mxCell>
        <mxCell id="vLFiFbukNMR0kvkJJkpE-66" style="edgeStyle=none;rounded=0;orthogonalLoop=1;jettySize=auto;html=1;entryX=0.5;entryY=0;entryDx=0;entryDy=0;" parent="1" source="vLFiFbukNMR0kvkJJkpE-67" target="vLFiFbukNMR0kvkJJkpE-69" edge="1">
          <mxGeometry relative="1" as="geometry" />
        </mxCell>
        <mxCell id="vLFiFbukNMR0kvkJJkpE-141" style="edgeStyle=none;rounded=0;orthogonalLoop=1;jettySize=auto;html=1;exitX=1;exitY=1;exitDx=0;exitDy=0;entryX=0.016;entryY=0.339;entryDx=0;entryDy=0;entryPerimeter=0;fillColor=#0050ef;strokeColor=#001DBC;" parent="1" source="vLFiFbukNMR0kvkJJkpE-67" target="vLFiFbukNMR0kvkJJkpE-81" edge="1">
          <mxGeometry relative="1" as="geometry" />
        </mxCell>
        <mxCell id="vLFiFbukNMR0kvkJJkpE-67" value="hd" style="ellipse;whiteSpace=wrap;html=1;" parent="1" vertex="1">
          <mxGeometry x="98.5" y="410" width="20" height="20" as="geometry" />
        </mxCell>
        <mxCell id="vLFiFbukNMR0kvkJJkpE-68" style="edgeStyle=none;rounded=0;orthogonalLoop=1;jettySize=auto;html=1;entryX=0.5;entryY=0;entryDx=0;entryDy=0;" parent="1" source="vLFiFbukNMR0kvkJJkpE-69" target="vLFiFbukNMR0kvkJJkpE-71" edge="1">
          <mxGeometry relative="1" as="geometry" />
        </mxCell>
        <mxCell id="vLFiFbukNMR0kvkJJkpE-69" value="bq" style="ellipse;whiteSpace=wrap;html=1;" parent="1" vertex="1">
          <mxGeometry x="88.5" y="460" width="20" height="20" as="geometry" />
        </mxCell>
        <mxCell id="vLFiFbukNMR0kvkJJkpE-70" style="edgeStyle=none;rounded=0;orthogonalLoop=1;jettySize=auto;html=1;entryX=0;entryY=0;entryDx=0;entryDy=0;" parent="1" source="vLFiFbukNMR0kvkJJkpE-71" target="vLFiFbukNMR0kvkJJkpE-73" edge="1">
          <mxGeometry relative="1" as="geometry" />
        </mxCell>
        <mxCell id="vLFiFbukNMR0kvkJJkpE-71" value="tb" style="ellipse;whiteSpace=wrap;html=1;" parent="1" vertex="1">
          <mxGeometry x="98.5" y="510" width="20" height="20" as="geometry" />
        </mxCell>
        <mxCell id="vLFiFbukNMR0kvkJJkpE-72" style="edgeStyle=none;rounded=0;orthogonalLoop=1;jettySize=auto;html=1;entryX=0;entryY=0.5;entryDx=0;entryDy=0;" parent="1" source="vLFiFbukNMR0kvkJJkpE-73" target="vLFiFbukNMR0kvkJJkpE-75" edge="1">
          <mxGeometry relative="1" as="geometry" />
        </mxCell>
        <mxCell id="vLFiFbukNMR0kvkJJkpE-73" value="pk" style="ellipse;whiteSpace=wrap;html=1;" parent="1" vertex="1">
          <mxGeometry x="138.5" y="550" width="20" height="20" as="geometry" />
        </mxCell>
        <mxCell id="vLFiFbukNMR0kvkJJkpE-74" style="edgeStyle=none;rounded=0;orthogonalLoop=1;jettySize=auto;html=1;entryX=0;entryY=0.5;entryDx=0;entryDy=0;" parent="1" source="vLFiFbukNMR0kvkJJkpE-75" target="vLFiFbukNMR0kvkJJkpE-77" edge="1">
          <mxGeometry relative="1" as="geometry" />
        </mxCell>
        <mxCell id="vLFiFbukNMR0kvkJJkpE-144" style="edgeStyle=none;rounded=0;orthogonalLoop=1;jettySize=auto;html=1;exitX=0.5;exitY=0;exitDx=0;exitDy=0;entryX=0;entryY=1;entryDx=0;entryDy=0;fillColor=#0050ef;strokeColor=#001DBC;" parent="1" source="vLFiFbukNMR0kvkJJkpE-75" target="vLFiFbukNMR0kvkJJkpE-81" edge="1">
          <mxGeometry relative="1" as="geometry" />
        </mxCell>
        <mxCell id="vLFiFbukNMR0kvkJJkpE-75" value="fq" style="ellipse;whiteSpace=wrap;html=1;" parent="1" vertex="1">
          <mxGeometry x="188.5" y="560" width="20" height="20" as="geometry" />
        </mxCell>
        <mxCell id="vLFiFbukNMR0kvkJJkpE-76" style="edgeStyle=none;rounded=0;orthogonalLoop=1;jettySize=auto;html=1;entryX=0;entryY=1;entryDx=0;entryDy=0;" parent="1" source="vLFiFbukNMR0kvkJJkpE-77" target="vLFiFbukNMR0kvkJJkpE-79" edge="1">
          <mxGeometry relative="1" as="geometry" />
        </mxCell>
        <mxCell id="vLFiFbukNMR0kvkJJkpE-77" value="bh" style="ellipse;whiteSpace=wrap;html=1;" parent="1" vertex="1">
          <mxGeometry x="232.5" y="552" width="20" height="20" as="geometry" />
        </mxCell>
        <mxCell id="vLFiFbukNMR0kvkJJkpE-78" style="edgeStyle=none;rounded=0;orthogonalLoop=1;jettySize=auto;html=1;entryX=0.5;entryY=1;entryDx=0;entryDy=0;" parent="1" source="vLFiFbukNMR0kvkJJkpE-79" target="vLFiFbukNMR0kvkJJkpE-81" edge="1">
          <mxGeometry relative="1" as="geometry" />
        </mxCell>
        <mxCell id="vLFiFbukNMR0kvkJJkpE-79" value="pr" style="ellipse;whiteSpace=wrap;html=1;" parent="1" vertex="1">
          <mxGeometry x="270.5" y="521" width="20" height="20" as="geometry" />
        </mxCell>
        <mxCell id="vLFiFbukNMR0kvkJJkpE-80" style="edgeStyle=none;rounded=0;orthogonalLoop=1;jettySize=auto;html=1;entryX=0.686;entryY=0.956;entryDx=0;entryDy=0;entryPerimeter=0;fillColor=#ffe6cc;strokeColor=#d79b00;" parent="1" source="vLFiFbukNMR0kvkJJkpE-81" target="vLFiFbukNMR0kvkJJkpE-83" edge="1">
          <mxGeometry relative="1" as="geometry" />
        </mxCell>
        <mxCell id="_b43t_OURAf0LPRaJytC-5" value="1" style="edgeLabel;html=1;align=center;verticalAlign=middle;resizable=0;points=[];" parent="vLFiFbukNMR0kvkJJkpE-80" vertex="1" connectable="0">
          <mxGeometry x="0.0709" y="1" relative="1" as="geometry">
            <mxPoint x="5" y="3" as="offset" />
          </mxGeometry>
        </mxCell>
        <mxCell id="vLFiFbukNMR0kvkJJkpE-146" style="edgeStyle=none;rounded=0;orthogonalLoop=1;jettySize=auto;html=1;exitX=0.3;exitY=0.03;exitDx=0;exitDy=0;entryX=0.5;entryY=1;entryDx=0;entryDy=0;exitPerimeter=0;fillColor=#ffe6cc;strokeColor=#d79b00;" parent="1" source="vLFiFbukNMR0kvkJJkpE-81" target="vLFiFbukNMR0kvkJJkpE-85" edge="1">
          <mxGeometry relative="1" as="geometry" />
        </mxCell>
        <mxCell id="_b43t_OURAf0LPRaJytC-6" value="2" style="edgeLabel;html=1;align=center;verticalAlign=middle;resizable=0;points=[];" parent="vLFiFbukNMR0kvkJJkpE-146" vertex="1" connectable="0">
          <mxGeometry x="0.5025" relative="1" as="geometry">
            <mxPoint y="3" as="offset" />
          </mxGeometry>
        </mxCell>
        <mxCell id="vLFiFbukNMR0kvkJJkpE-147" style="edgeStyle=none;rounded=0;orthogonalLoop=1;jettySize=auto;html=1;exitX=0;exitY=0;exitDx=0;exitDy=0;entryX=1;entryY=1;entryDx=0;entryDy=0;fillColor=#ffe6cc;strokeColor=#d79b00;" parent="1" source="vLFiFbukNMR0kvkJJkpE-81" target="vLFiFbukNMR0kvkJJkpE-63" edge="1">
          <mxGeometry relative="1" as="geometry" />
        </mxCell>
        <mxCell id="_b43t_OURAf0LPRaJytC-7" value="8" style="edgeLabel;html=1;align=center;verticalAlign=middle;resizable=0;points=[];" parent="vLFiFbukNMR0kvkJJkpE-147" vertex="1" connectable="0">
          <mxGeometry x="0.2749" relative="1" as="geometry">
            <mxPoint x="-16" y="-18" as="offset" />
          </mxGeometry>
        </mxCell>
        <mxCell id="vLFiFbukNMR0kvkJJkpE-148" style="edgeStyle=none;rounded=0;orthogonalLoop=1;jettySize=auto;html=1;exitX=0;exitY=0.5;exitDx=0;exitDy=0;entryX=1;entryY=0.5;entryDx=0;entryDy=0;fillColor=#ffe6cc;strokeColor=#d79b00;" parent="1" source="vLFiFbukNMR0kvkJJkpE-81" target="vLFiFbukNMR0kvkJJkpE-69" edge="1">
          <mxGeometry relative="1" as="geometry" />
        </mxCell>
        <mxCell id="_b43t_OURAf0LPRaJytC-9" value="64" style="edgeLabel;html=1;align=center;verticalAlign=middle;resizable=0;points=[];" parent="vLFiFbukNMR0kvkJJkpE-148" vertex="1" connectable="0">
          <mxGeometry x="0.5768" relative="1" as="geometry">
            <mxPoint x="-8" y="-1" as="offset" />
          </mxGeometry>
        </mxCell>
        <mxCell id="vLFiFbukNMR0kvkJJkpE-272" style="edgeStyle=none;rounded=0;orthogonalLoop=1;jettySize=auto;html=1;entryX=0;entryY=1;entryDx=0;entryDy=0;" parent="1" source="vLFiFbukNMR0kvkJJkpE-81" target="gAliYxZheVsyIceWktLf-4" edge="1">
          <mxGeometry relative="1" as="geometry">
            <mxPoint x="400" y="389" as="targetPoint" />
          </mxGeometry>
        </mxCell>
        <mxCell id="vLFiFbukNMR0kvkJJkpE-81" value="pp" style="ellipse;whiteSpace=wrap;html=1;fillColor=#050505;strokeColor=#FFFFFF;fontColor=#F7F7F7;" parent="1" vertex="1">
          <mxGeometry x="287.5" y="479" width="20" height="20" as="geometry" />
        </mxCell>
        <mxCell id="vLFiFbukNMR0kvkJJkpE-82" style="edgeStyle=none;rounded=0;orthogonalLoop=1;jettySize=auto;html=1;entryX=1;entryY=1;entryDx=0;entryDy=0;" parent="1" source="vLFiFbukNMR0kvkJJkpE-83" target="vLFiFbukNMR0kvkJJkpE-85" edge="1">
          <mxGeometry relative="1" as="geometry" />
        </mxCell>
        <mxCell id="vLFiFbukNMR0kvkJJkpE-83" value="ml" style="ellipse;whiteSpace=wrap;html=1;" parent="1" vertex="1">
          <mxGeometry x="286.5" y="434" width="20" height="20" as="geometry" />
        </mxCell>
        <mxCell id="vLFiFbukNMR0kvkJJkpE-84" style="edgeStyle=none;rounded=0;orthogonalLoop=1;jettySize=auto;html=1;entryX=1;entryY=1;entryDx=0;entryDy=0;" parent="1" source="vLFiFbukNMR0kvkJJkpE-85" target="vLFiFbukNMR0kvkJJkpE-87" edge="1">
          <mxGeometry relative="1" as="geometry" />
        </mxCell>
        <mxCell id="vLFiFbukNMR0kvkJJkpE-85" value="xt" style="ellipse;whiteSpace=wrap;html=1;" parent="1" vertex="1">
          <mxGeometry x="268.5" y="397" width="20" height="20" as="geometry" />
        </mxCell>
        <mxCell id="vLFiFbukNMR0kvkJJkpE-86" style="edgeStyle=none;rounded=0;orthogonalLoop=1;jettySize=auto;html=1;entryX=1;entryY=0.5;entryDx=0;entryDy=0;" parent="1" source="vLFiFbukNMR0kvkJJkpE-87" target="vLFiFbukNMR0kvkJJkpE-63" edge="1">
          <mxGeometry relative="1" as="geometry" />
        </mxCell>
        <mxCell id="vLFiFbukNMR0kvkJJkpE-139" style="edgeStyle=none;rounded=0;orthogonalLoop=1;jettySize=auto;html=1;exitX=0.5;exitY=1;exitDx=0;exitDy=0;entryX=0.209;entryY=0.084;entryDx=0;entryDy=0;entryPerimeter=0;fillColor=#0050ef;strokeColor=#001DBC;" parent="1" source="vLFiFbukNMR0kvkJJkpE-87" target="vLFiFbukNMR0kvkJJkpE-81" edge="1">
          <mxGeometry relative="1" as="geometry" />
        </mxCell>
        <mxCell id="vLFiFbukNMR0kvkJJkpE-87" value="bc" style="ellipse;whiteSpace=wrap;html=1;" parent="1" vertex="1">
          <mxGeometry x="238.5" y="370" width="20" height="20" as="geometry" />
        </mxCell>
        <mxCell id="vLFiFbukNMR0kvkJJkpE-98" style="edgeStyle=none;rounded=0;orthogonalLoop=1;jettySize=auto;html=1;exitX=0.329;exitY=0.955;exitDx=0;exitDy=0;exitPerimeter=0;fillColor=#0050ef;strokeColor=#001DBC;" parent="1" source="vLFiFbukNMR0kvkJJkpE-21" edge="1">
          <mxGeometry relative="1" as="geometry">
            <mxPoint x="296" y="158" as="targetPoint" />
          </mxGeometry>
        </mxCell>
        <mxCell id="vLFiFbukNMR0kvkJJkpE-100" style="edgeStyle=none;rounded=0;orthogonalLoop=1;jettySize=auto;html=1;exitX=1;exitY=1;exitDx=0;exitDy=0;entryX=0.107;entryY=0.221;entryDx=0;entryDy=0;entryPerimeter=0;fillColor=#0050ef;strokeColor=#001DBC;" parent="1" source="vLFiFbukNMR0kvkJJkpE-12" target="vLFiFbukNMR0kvkJJkpE-20" edge="1">
          <mxGeometry relative="1" as="geometry" />
        </mxCell>
        <mxCell id="vLFiFbukNMR0kvkJJkpE-102" style="edgeStyle=none;rounded=0;orthogonalLoop=1;jettySize=auto;html=1;entryX=0;entryY=0.5;entryDx=0;entryDy=0;fillColor=#0050ef;strokeColor=#001DBC;" parent="1" source="vLFiFbukNMR0kvkJJkpE-15" target="vLFiFbukNMR0kvkJJkpE-20" edge="1">
          <mxGeometry relative="1" as="geometry">
            <mxPoint x="287" y="173" as="targetPoint" />
          </mxGeometry>
        </mxCell>
        <mxCell id="vLFiFbukNMR0kvkJJkpE-103" style="edgeStyle=none;rounded=0;orthogonalLoop=1;jettySize=auto;html=1;entryX=0;entryY=1;entryDx=0;entryDy=0;fillColor=#0050ef;strokeColor=#001DBC;" parent="1" source="vLFiFbukNMR0kvkJJkpE-17" target="vLFiFbukNMR0kvkJJkpE-20" edge="1">
          <mxGeometry relative="1" as="geometry">
            <mxPoint x="280" y="180" as="targetPoint" />
          </mxGeometry>
        </mxCell>
        <mxCell id="vLFiFbukNMR0kvkJJkpE-105" style="edgeStyle=none;rounded=0;orthogonalLoop=1;jettySize=auto;html=1;exitX=1;exitY=0;exitDx=0;exitDy=0;entryX=0.033;entryY=0.665;entryDx=0;entryDy=0;entryPerimeter=0;fillColor=#0050ef;strokeColor=#001DBC;" parent="1" source="vLFiFbukNMR0kvkJJkpE-16" target="vLFiFbukNMR0kvkJJkpE-20" edge="1">
          <mxGeometry relative="1" as="geometry" />
        </mxCell>
        <mxCell id="vLFiFbukNMR0kvkJJkpE-108" style="edgeStyle=none;rounded=0;orthogonalLoop=1;jettySize=auto;html=1;exitX=0;exitY=0;exitDx=0;exitDy=0;entryX=1;entryY=1;entryDx=0;entryDy=0;fillColor=#ffe6cc;strokeColor=#d79b00;" parent="1" source="vLFiFbukNMR0kvkJJkpE-20" target="vLFiFbukNMR0kvkJJkpE-2" edge="1">
          <mxGeometry relative="1" as="geometry" />
        </mxCell>
        <mxCell id="_b43t_OURAf0LPRaJytC-3" value="8" style="edgeLabel;html=1;align=center;verticalAlign=middle;resizable=0;points=[];" parent="vLFiFbukNMR0kvkJJkpE-108" vertex="1" connectable="0">
          <mxGeometry x="0.5756" relative="1" as="geometry">
            <mxPoint as="offset" />
          </mxGeometry>
        </mxCell>
        <mxCell id="vLFiFbukNMR0kvkJJkpE-138" style="edgeStyle=none;rounded=0;orthogonalLoop=1;jettySize=auto;html=1;exitX=0;exitY=1;exitDx=0;exitDy=0;entryX=0.391;entryY=-0.008;entryDx=0;entryDy=0;entryPerimeter=0;fillColor=#0050ef;strokeColor=#001DBC;" parent="1" source="vLFiFbukNMR0kvkJJkpE-83" target="vLFiFbukNMR0kvkJJkpE-81" edge="1">
          <mxGeometry relative="1" as="geometry" />
        </mxCell>
        <mxCell id="vLFiFbukNMR0kvkJJkpE-140" style="edgeStyle=none;rounded=0;orthogonalLoop=1;jettySize=auto;html=1;exitX=1;exitY=1;exitDx=0;exitDy=0;entryX=0.097;entryY=0.169;entryDx=0;entryDy=0;entryPerimeter=0;fillColor=#0050ef;strokeColor=#001DBC;" parent="1" source="vLFiFbukNMR0kvkJJkpE-65" target="vLFiFbukNMR0kvkJJkpE-81" edge="1">
          <mxGeometry relative="1" as="geometry" />
        </mxCell>
        <mxCell id="vLFiFbukNMR0kvkJJkpE-142" style="edgeStyle=none;rounded=0;orthogonalLoop=1;jettySize=auto;html=1;exitX=1;exitY=0.5;exitDx=0;exitDy=0;entryX=0;entryY=0.5;entryDx=0;entryDy=0;fillColor=#0050ef;strokeColor=#001DBC;" parent="1" source="vLFiFbukNMR0kvkJJkpE-71" target="vLFiFbukNMR0kvkJJkpE-81" edge="1">
          <mxGeometry relative="1" as="geometry" />
        </mxCell>
        <mxCell id="vLFiFbukNMR0kvkJJkpE-143" style="edgeStyle=none;rounded=0;orthogonalLoop=1;jettySize=auto;html=1;exitX=1;exitY=0;exitDx=0;exitDy=0;entryX=0.032;entryY=0.694;entryDx=0;entryDy=0;entryPerimeter=0;fillColor=#0050ef;strokeColor=#001DBC;" parent="1" source="vLFiFbukNMR0kvkJJkpE-73" target="vLFiFbukNMR0kvkJJkpE-81" edge="1">
          <mxGeometry relative="1" as="geometry" />
        </mxCell>
        <mxCell id="vLFiFbukNMR0kvkJJkpE-145" style="edgeStyle=none;rounded=0;orthogonalLoop=1;jettySize=auto;html=1;exitX=0.5;exitY=0;exitDx=0;exitDy=0;entryX=0.311;entryY=0.937;entryDx=0;entryDy=0;entryPerimeter=0;fillColor=#0050ef;strokeColor=#001DBC;" parent="1" source="vLFiFbukNMR0kvkJJkpE-77" target="vLFiFbukNMR0kvkJJkpE-81" edge="1">
          <mxGeometry relative="1" as="geometry" />
        </mxCell>
        <mxCell id="vLFiFbukNMR0kvkJJkpE-193" style="edgeStyle=none;rounded=0;orthogonalLoop=1;jettySize=auto;html=1;entryX=0;entryY=0;entryDx=0;entryDy=0;" parent="1" source="vLFiFbukNMR0kvkJJkpE-151" target="vLFiFbukNMR0kvkJJkpE-187" edge="1">
          <mxGeometry relative="1" as="geometry" />
        </mxCell>
        <mxCell id="vLFiFbukNMR0kvkJJkpE-151" value="nt" style="ellipse;whiteSpace=wrap;html=1;" parent="1" vertex="1">
          <mxGeometry x="668" y="40" width="20" height="20" as="geometry" />
        </mxCell>
        <mxCell id="vLFiFbukNMR0kvkJJkpE-192" style="edgeStyle=none;rounded=0;orthogonalLoop=1;jettySize=auto;html=1;entryX=0;entryY=0.5;entryDx=0;entryDy=0;" parent="1" source="vLFiFbukNMR0kvkJJkpE-153" target="vLFiFbukNMR0kvkJJkpE-151" edge="1">
          <mxGeometry relative="1" as="geometry" />
        </mxCell>
        <mxCell id="vLFiFbukNMR0kvkJJkpE-153" value="fd" style="ellipse;whiteSpace=wrap;html=1;" parent="1" vertex="1">
          <mxGeometry x="618" y="50" width="20" height="20" as="geometry" />
        </mxCell>
        <mxCell id="vLFiFbukNMR0kvkJJkpE-191" style="edgeStyle=none;rounded=0;orthogonalLoop=1;jettySize=auto;html=1;entryX=0;entryY=1;entryDx=0;entryDy=0;" parent="1" source="vLFiFbukNMR0kvkJJkpE-156" target="vLFiFbukNMR0kvkJJkpE-153" edge="1">
          <mxGeometry relative="1" as="geometry" />
        </mxCell>
        <mxCell id="vLFiFbukNMR0kvkJJkpE-156" value="sn" style="ellipse;whiteSpace=wrap;html=1;" parent="1" vertex="1">
          <mxGeometry x="578" y="90" width="20" height="20" as="geometry" />
        </mxCell>
        <mxCell id="vLFiFbukNMR0kvkJJkpE-190" style="edgeStyle=none;rounded=0;orthogonalLoop=1;jettySize=auto;html=1;entryX=0;entryY=1;entryDx=0;entryDy=0;" parent="1" source="vLFiFbukNMR0kvkJJkpE-158" target="vLFiFbukNMR0kvkJJkpE-156" edge="1">
          <mxGeometry relative="1" as="geometry" />
        </mxCell>
        <mxCell id="vLFiFbukNMR0kvkJJkpE-158" value="cn" style="ellipse;whiteSpace=wrap;html=1;" parent="1" vertex="1">
          <mxGeometry x="568" y="140" width="20" height="20" as="geometry" />
        </mxCell>
        <mxCell id="vLFiFbukNMR0kvkJJkpE-202" style="edgeStyle=none;rounded=0;orthogonalLoop=1;jettySize=auto;html=1;entryX=0.5;entryY=1;entryDx=0;entryDy=0;exitX=0;exitY=0;exitDx=0;exitDy=0;fillColor=#ffe6cc;strokeColor=#d79b00;" parent="1" source="vLFiFbukNMR0kvkJJkpE-160" target="vLFiFbukNMR0kvkJJkpE-158" edge="1">
          <mxGeometry relative="1" as="geometry" />
        </mxCell>
        <mxCell id="_b43t_OURAf0LPRaJytC-14" value="1" style="edgeLabel;html=1;align=center;verticalAlign=middle;resizable=0;points=[];" parent="vLFiFbukNMR0kvkJJkpE-202" vertex="1" connectable="0">
          <mxGeometry x="0.2727" y="1" relative="1" as="geometry">
            <mxPoint x="-4" y="4" as="offset" />
          </mxGeometry>
        </mxCell>
        <mxCell id="vLFiFbukNMR0kvkJJkpE-212" style="edgeStyle=none;rounded=0;orthogonalLoop=1;jettySize=auto;html=1;entryX=1;entryY=1;entryDx=0;entryDy=0;fillColor=#ffe6cc;strokeColor=#d79b00;" parent="1" source="vLFiFbukNMR0kvkJJkpE-160" target="vLFiFbukNMR0kvkJJkpE-156" edge="1">
          <mxGeometry relative="1" as="geometry" />
        </mxCell>
        <mxCell id="_b43t_OURAf0LPRaJytC-15" value="2" style="edgeLabel;html=1;align=center;verticalAlign=middle;resizable=0;points=[];" parent="vLFiFbukNMR0kvkJJkpE-212" vertex="1" connectable="0">
          <mxGeometry x="0.4439" relative="1" as="geometry">
            <mxPoint y="-3" as="offset" />
          </mxGeometry>
        </mxCell>
        <mxCell id="vLFiFbukNMR0kvkJJkpE-214" style="edgeStyle=none;rounded=0;orthogonalLoop=1;jettySize=auto;html=1;entryX=0.5;entryY=1;entryDx=0;entryDy=0;fillColor=#ffe6cc;strokeColor=#d79b00;" parent="1" source="vLFiFbukNMR0kvkJJkpE-160" target="vLFiFbukNMR0kvkJJkpE-153" edge="1">
          <mxGeometry relative="1" as="geometry" />
        </mxCell>
        <mxCell id="_b43t_OURAf0LPRaJytC-16" value="4" style="edgeLabel;html=1;align=center;verticalAlign=middle;resizable=0;points=[];" parent="vLFiFbukNMR0kvkJJkpE-214" vertex="1" connectable="0">
          <mxGeometry x="0.6605" relative="1" as="geometry">
            <mxPoint x="-1" as="offset" />
          </mxGeometry>
        </mxCell>
        <mxCell id="vLFiFbukNMR0kvkJJkpE-215" style="edgeStyle=none;rounded=0;orthogonalLoop=1;jettySize=auto;html=1;entryX=0;entryY=1;entryDx=0;entryDy=0;fillColor=#ffe6cc;strokeColor=#d79b00;" parent="1" source="vLFiFbukNMR0kvkJJkpE-160" target="vLFiFbukNMR0kvkJJkpE-178" edge="1">
          <mxGeometry relative="1" as="geometry" />
        </mxCell>
        <mxCell id="_b43t_OURAf0LPRaJytC-17" value="32" style="edgeLabel;html=1;align=center;verticalAlign=middle;resizable=0;points=[];" parent="vLFiFbukNMR0kvkJJkpE-215" vertex="1" connectable="0">
          <mxGeometry x="0.7569" relative="1" as="geometry">
            <mxPoint as="offset" />
          </mxGeometry>
        </mxCell>
        <mxCell id="vLFiFbukNMR0kvkJJkpE-275" style="edgeStyle=none;rounded=0;orthogonalLoop=1;jettySize=auto;html=1;entryX=1;entryY=0;entryDx=0;entryDy=0;" parent="1" source="vLFiFbukNMR0kvkJJkpE-160" target="gAliYxZheVsyIceWktLf-2" edge="1">
          <mxGeometry relative="1" as="geometry">
            <mxPoint x="477.07106781186553" y="322.92893218813435" as="targetPoint" />
          </mxGeometry>
        </mxCell>
        <mxCell id="vLFiFbukNMR0kvkJJkpE-160" value="sj" style="ellipse;whiteSpace=wrap;html=1;fillColor=#050505;strokeColor=#FFFFFF;fontColor=#F7F7F7;" parent="1" vertex="1">
          <mxGeometry x="578" y="190" width="20" height="20" as="geometry" />
        </mxCell>
        <mxCell id="vLFiFbukNMR0kvkJJkpE-201" style="edgeStyle=none;rounded=0;orthogonalLoop=1;jettySize=auto;html=1;entryX=0.5;entryY=1;entryDx=0;entryDy=0;" parent="1" source="vLFiFbukNMR0kvkJJkpE-162" target="vLFiFbukNMR0kvkJJkpE-160" edge="1">
          <mxGeometry relative="1" as="geometry" />
        </mxCell>
        <mxCell id="vLFiFbukNMR0kvkJJkpE-162" value="ch" style="ellipse;whiteSpace=wrap;html=1;" parent="1" vertex="1">
          <mxGeometry x="618" y="230" width="20" height="20" as="geometry" />
        </mxCell>
        <mxCell id="vLFiFbukNMR0kvkJJkpE-200" style="edgeStyle=none;rounded=0;orthogonalLoop=1;jettySize=auto;html=1;entryX=1;entryY=1;entryDx=0;entryDy=0;" parent="1" source="vLFiFbukNMR0kvkJJkpE-165" target="vLFiFbukNMR0kvkJJkpE-162" edge="1">
          <mxGeometry relative="1" as="geometry" />
        </mxCell>
        <mxCell id="vLFiFbukNMR0kvkJJkpE-211" style="edgeStyle=none;rounded=0;orthogonalLoop=1;jettySize=auto;html=1;entryX=0.925;entryY=0.764;entryDx=0;entryDy=0;entryPerimeter=0;fillColor=#0050ef;strokeColor=#001DBC;" parent="1" source="vLFiFbukNMR0kvkJJkpE-165" target="vLFiFbukNMR0kvkJJkpE-160" edge="1">
          <mxGeometry relative="1" as="geometry">
            <mxPoint x="600" y="210" as="targetPoint" />
          </mxGeometry>
        </mxCell>
        <mxCell id="vLFiFbukNMR0kvkJJkpE-165" value="rq" style="ellipse;whiteSpace=wrap;html=1;" parent="1" vertex="1">
          <mxGeometry x="668" y="240" width="20" height="20" as="geometry" />
        </mxCell>
        <mxCell id="vLFiFbukNMR0kvkJJkpE-199" style="edgeStyle=none;rounded=0;orthogonalLoop=1;jettySize=auto;html=1;entryX=1;entryY=0.5;entryDx=0;entryDy=0;" parent="1" source="vLFiFbukNMR0kvkJJkpE-167" target="vLFiFbukNMR0kvkJJkpE-165" edge="1">
          <mxGeometry relative="1" as="geometry" />
        </mxCell>
        <mxCell id="vLFiFbukNMR0kvkJJkpE-167" value="nh" style="ellipse;whiteSpace=wrap;html=1;" parent="1" vertex="1">
          <mxGeometry x="712" y="232" width="20" height="20" as="geometry" />
        </mxCell>
        <mxCell id="vLFiFbukNMR0kvkJJkpE-198" style="edgeStyle=none;rounded=0;orthogonalLoop=1;jettySize=auto;html=1;entryX=1;entryY=0.5;entryDx=0;entryDy=0;" parent="1" source="vLFiFbukNMR0kvkJJkpE-169" target="vLFiFbukNMR0kvkJJkpE-167" edge="1">
          <mxGeometry relative="1" as="geometry" />
        </mxCell>
        <mxCell id="vLFiFbukNMR0kvkJJkpE-169" value="mb" style="ellipse;whiteSpace=wrap;html=1;" parent="1" vertex="1">
          <mxGeometry x="750" y="201" width="20" height="20" as="geometry" />
        </mxCell>
        <mxCell id="vLFiFbukNMR0kvkJJkpE-197" style="edgeStyle=none;rounded=0;orthogonalLoop=1;jettySize=auto;html=1;entryX=1;entryY=0;entryDx=0;entryDy=0;" parent="1" source="vLFiFbukNMR0kvkJJkpE-174" target="vLFiFbukNMR0kvkJJkpE-169" edge="1">
          <mxGeometry relative="1" as="geometry" />
        </mxCell>
        <mxCell id="vLFiFbukNMR0kvkJJkpE-208" style="edgeStyle=none;rounded=0;orthogonalLoop=1;jettySize=auto;html=1;entryX=0.985;entryY=0.304;entryDx=0;entryDy=0;entryPerimeter=0;fillColor=#0050ef;strokeColor=#001DBC;" parent="1" source="vLFiFbukNMR0kvkJJkpE-174" target="vLFiFbukNMR0kvkJJkpE-160" edge="1">
          <mxGeometry relative="1" as="geometry" />
        </mxCell>
        <mxCell id="vLFiFbukNMR0kvkJJkpE-174" value="kl" style="ellipse;whiteSpace=wrap;html=1;" parent="1" vertex="1">
          <mxGeometry x="767" y="159" width="20" height="20" as="geometry" />
        </mxCell>
        <mxCell id="vLFiFbukNMR0kvkJJkpE-196" style="edgeStyle=none;rounded=0;orthogonalLoop=1;jettySize=auto;html=1;entryX=0.5;entryY=0;entryDx=0;entryDy=0;" parent="1" source="vLFiFbukNMR0kvkJJkpE-176" target="vLFiFbukNMR0kvkJJkpE-174" edge="1">
          <mxGeometry relative="1" as="geometry" />
        </mxCell>
        <mxCell id="vLFiFbukNMR0kvkJJkpE-176" value="sq" style="ellipse;whiteSpace=wrap;html=1;" parent="1" vertex="1">
          <mxGeometry x="766" y="114" width="20" height="20" as="geometry" />
        </mxCell>
        <mxCell id="vLFiFbukNMR0kvkJJkpE-195" style="edgeStyle=none;rounded=0;orthogonalLoop=1;jettySize=auto;html=1;entryX=0.5;entryY=0;entryDx=0;entryDy=0;" parent="1" source="vLFiFbukNMR0kvkJJkpE-178" target="vLFiFbukNMR0kvkJJkpE-176" edge="1">
          <mxGeometry relative="1" as="geometry" />
        </mxCell>
        <mxCell id="vLFiFbukNMR0kvkJJkpE-178" value="qq" style="ellipse;whiteSpace=wrap;html=1;" parent="1" vertex="1">
          <mxGeometry x="748" y="77" width="20" height="20" as="geometry" />
        </mxCell>
        <mxCell id="vLFiFbukNMR0kvkJJkpE-181" value="nh" style="ellipse;whiteSpace=wrap;html=1;" parent="1" vertex="1">
          <mxGeometry x="718" y="50" width="20" height="20" as="geometry" />
        </mxCell>
        <mxCell id="vLFiFbukNMR0kvkJJkpE-194" style="edgeStyle=none;rounded=0;orthogonalLoop=1;jettySize=auto;html=1;entryX=0;entryY=0;entryDx=0;entryDy=0;" parent="1" source="vLFiFbukNMR0kvkJJkpE-187" target="vLFiFbukNMR0kvkJJkpE-178" edge="1">
          <mxGeometry relative="1" as="geometry" />
        </mxCell>
        <mxCell id="vLFiFbukNMR0kvkJJkpE-206" style="edgeStyle=none;rounded=0;orthogonalLoop=1;jettySize=auto;html=1;entryX=0.752;entryY=0.078;entryDx=0;entryDy=0;entryPerimeter=0;fillColor=#0050ef;strokeColor=#001DBC;" parent="1" source="vLFiFbukNMR0kvkJJkpE-187" target="vLFiFbukNMR0kvkJJkpE-160" edge="1">
          <mxGeometry relative="1" as="geometry" />
        </mxCell>
        <mxCell id="vLFiFbukNMR0kvkJJkpE-187" value="kq" style="ellipse;whiteSpace=wrap;html=1;" parent="1" vertex="1">
          <mxGeometry x="718" y="50" width="20" height="20" as="geometry" />
        </mxCell>
        <mxCell id="vLFiFbukNMR0kvkJJkpE-203" style="edgeStyle=none;rounded=0;orthogonalLoop=1;jettySize=auto;html=1;exitX=1;exitY=1;exitDx=0;exitDy=0;entryX=0.27;entryY=0.049;entryDx=0;entryDy=0;entryPerimeter=0;fillColor=#0050ef;strokeColor=#001DBC;" parent="1" source="vLFiFbukNMR0kvkJJkpE-158" target="vLFiFbukNMR0kvkJJkpE-160" edge="1">
          <mxGeometry relative="1" as="geometry" />
        </mxCell>
        <mxCell id="vLFiFbukNMR0kvkJJkpE-205" style="edgeStyle=none;rounded=0;orthogonalLoop=1;jettySize=auto;html=1;entryX=0.589;entryY=0.017;entryDx=0;entryDy=0;entryPerimeter=0;fillColor=#0050ef;strokeColor=#001DBC;" parent="1" source="vLFiFbukNMR0kvkJJkpE-151" target="vLFiFbukNMR0kvkJJkpE-160" edge="1">
          <mxGeometry relative="1" as="geometry" />
        </mxCell>
        <mxCell id="vLFiFbukNMR0kvkJJkpE-207" style="edgeStyle=none;rounded=0;orthogonalLoop=1;jettySize=auto;html=1;entryX=1;entryY=0;entryDx=0;entryDy=0;fillColor=#0050ef;strokeColor=#001DBC;" parent="1" source="vLFiFbukNMR0kvkJJkpE-176" target="vLFiFbukNMR0kvkJJkpE-160" edge="1">
          <mxGeometry relative="1" as="geometry" />
        </mxCell>
        <mxCell id="vLFiFbukNMR0kvkJJkpE-209" style="edgeStyle=none;rounded=0;orthogonalLoop=1;jettySize=auto;html=1;entryX=1;entryY=0.5;entryDx=0;entryDy=0;fillColor=#0050ef;strokeColor=#001DBC;" parent="1" source="vLFiFbukNMR0kvkJJkpE-169" target="vLFiFbukNMR0kvkJJkpE-160" edge="1">
          <mxGeometry relative="1" as="geometry" />
        </mxCell>
        <mxCell id="vLFiFbukNMR0kvkJJkpE-210" style="edgeStyle=none;rounded=0;orthogonalLoop=1;jettySize=auto;html=1;entryX=0.995;entryY=0.656;entryDx=0;entryDy=0;entryPerimeter=0;fillColor=#0050ef;strokeColor=#001DBC;" parent="1" source="vLFiFbukNMR0kvkJJkpE-167" target="vLFiFbukNMR0kvkJJkpE-160" edge="1">
          <mxGeometry relative="1" as="geometry" />
        </mxCell>
        <mxCell id="vLFiFbukNMR0kvkJJkpE-216" style="edgeStyle=none;rounded=0;orthogonalLoop=1;jettySize=auto;html=1;entryX=0;entryY=0;entryDx=0;entryDy=0;" parent="1" source="vLFiFbukNMR0kvkJJkpE-217" target="vLFiFbukNMR0kvkJJkpE-248" edge="1">
          <mxGeometry relative="1" as="geometry" />
        </mxCell>
        <mxCell id="vLFiFbukNMR0kvkJJkpE-217" value="nd" style="ellipse;whiteSpace=wrap;html=1;" parent="1" vertex="1">
          <mxGeometry x="668.5" y="360" width="20" height="20" as="geometry" />
        </mxCell>
        <mxCell id="vLFiFbukNMR0kvkJJkpE-218" style="edgeStyle=none;rounded=0;orthogonalLoop=1;jettySize=auto;html=1;entryX=0;entryY=0.5;entryDx=0;entryDy=0;" parent="1" source="vLFiFbukNMR0kvkJJkpE-219" target="vLFiFbukNMR0kvkJJkpE-217" edge="1">
          <mxGeometry relative="1" as="geometry" />
        </mxCell>
        <mxCell id="vLFiFbukNMR0kvkJJkpE-219" value="vz" style="ellipse;whiteSpace=wrap;html=1;" parent="1" vertex="1">
          <mxGeometry x="618.5" y="370" width="20" height="20" as="geometry" />
        </mxCell>
        <mxCell id="vLFiFbukNMR0kvkJJkpE-220" style="edgeStyle=none;rounded=0;orthogonalLoop=1;jettySize=auto;html=1;entryX=0;entryY=1;entryDx=0;entryDy=0;" parent="1" source="vLFiFbukNMR0kvkJJkpE-221" target="vLFiFbukNMR0kvkJJkpE-219" edge="1">
          <mxGeometry relative="1" as="geometry" />
        </mxCell>
        <mxCell id="vLFiFbukNMR0kvkJJkpE-221" value="zb" style="ellipse;whiteSpace=wrap;html=1;" parent="1" vertex="1">
          <mxGeometry x="578.5" y="410" width="20" height="20" as="geometry" />
        </mxCell>
        <mxCell id="vLFiFbukNMR0kvkJJkpE-222" style="edgeStyle=none;rounded=0;orthogonalLoop=1;jettySize=auto;html=1;entryX=0;entryY=1;entryDx=0;entryDy=0;" parent="1" source="vLFiFbukNMR0kvkJJkpE-223" target="vLFiFbukNMR0kvkJJkpE-221" edge="1">
          <mxGeometry relative="1" as="geometry" />
        </mxCell>
        <mxCell id="vLFiFbukNMR0kvkJJkpE-223" value="cs" style="ellipse;whiteSpace=wrap;html=1;" parent="1" vertex="1">
          <mxGeometry x="568.5" y="460" width="20" height="20" as="geometry" />
        </mxCell>
        <mxCell id="vLFiFbukNMR0kvkJJkpE-224" style="edgeStyle=none;rounded=0;orthogonalLoop=1;jettySize=auto;html=1;entryX=0.5;entryY=1;entryDx=0;entryDy=0;exitX=0;exitY=0;exitDx=0;exitDy=0;fillColor=#ffe6cc;strokeColor=#d79b00;" parent="1" source="vLFiFbukNMR0kvkJJkpE-228" target="vLFiFbukNMR0kvkJJkpE-223" edge="1">
          <mxGeometry relative="1" as="geometry" />
        </mxCell>
        <mxCell id="_b43t_OURAf0LPRaJytC-10" value="1" style="edgeLabel;html=1;align=center;verticalAlign=middle;resizable=0;points=[];" parent="vLFiFbukNMR0kvkJJkpE-224" vertex="1" connectable="0">
          <mxGeometry x="0.1631" y="1" relative="1" as="geometry">
            <mxPoint x="-6" y="-5" as="offset" />
          </mxGeometry>
        </mxCell>
        <mxCell id="vLFiFbukNMR0kvkJJkpE-262" style="edgeStyle=none;rounded=0;orthogonalLoop=1;jettySize=auto;html=1;entryX=1;entryY=1;entryDx=0;entryDy=0;fillColor=#ffe6cc;strokeColor=#d79b00;" parent="1" source="vLFiFbukNMR0kvkJJkpE-228" target="vLFiFbukNMR0kvkJJkpE-221" edge="1">
          <mxGeometry relative="1" as="geometry" />
        </mxCell>
        <mxCell id="_b43t_OURAf0LPRaJytC-11" value="2" style="edgeLabel;html=1;align=center;verticalAlign=middle;resizable=0;points=[];" parent="vLFiFbukNMR0kvkJJkpE-262" vertex="1" connectable="0">
          <mxGeometry x="0.3315" y="1" relative="1" as="geometry">
            <mxPoint x="1" y="-7" as="offset" />
          </mxGeometry>
        </mxCell>
        <mxCell id="vLFiFbukNMR0kvkJJkpE-263" style="edgeStyle=none;rounded=0;orthogonalLoop=1;jettySize=auto;html=1;entryX=0.5;entryY=1;entryDx=0;entryDy=0;fillColor=#ffe6cc;strokeColor=#d79b00;" parent="1" source="vLFiFbukNMR0kvkJJkpE-228" target="vLFiFbukNMR0kvkJJkpE-219" edge="1">
          <mxGeometry relative="1" as="geometry" />
        </mxCell>
        <mxCell id="_b43t_OURAf0LPRaJytC-12" value="4" style="edgeLabel;html=1;align=center;verticalAlign=middle;resizable=0;points=[];" parent="vLFiFbukNMR0kvkJJkpE-263" vertex="1" connectable="0">
          <mxGeometry x="0.3519" y="-1" relative="1" as="geometry">
            <mxPoint x="3" y="-15" as="offset" />
          </mxGeometry>
        </mxCell>
        <mxCell id="vLFiFbukNMR0kvkJJkpE-264" style="edgeStyle=none;rounded=0;orthogonalLoop=1;jettySize=auto;html=1;entryX=0;entryY=0.5;entryDx=0;entryDy=0;fillColor=#ffe6cc;strokeColor=#d79b00;" parent="1" source="vLFiFbukNMR0kvkJJkpE-228" target="vLFiFbukNMR0kvkJJkpE-237" edge="1">
          <mxGeometry relative="1" as="geometry" />
        </mxCell>
        <mxCell id="_b43t_OURAf0LPRaJytC-13" value="256" style="edgeLabel;html=1;align=center;verticalAlign=middle;resizable=0;points=[];" parent="vLFiFbukNMR0kvkJJkpE-264" vertex="1" connectable="0">
          <mxGeometry x="0.6425" y="1" relative="1" as="geometry">
            <mxPoint as="offset" />
          </mxGeometry>
        </mxCell>
        <mxCell id="vLFiFbukNMR0kvkJJkpE-278" style="edgeStyle=none;rounded=0;orthogonalLoop=1;jettySize=auto;html=1;entryX=1;entryY=1;entryDx=0;entryDy=0;" parent="1" source="vLFiFbukNMR0kvkJJkpE-228" target="gAliYxZheVsyIceWktLf-3" edge="1">
          <mxGeometry relative="1" as="geometry">
            <mxPoint x="477.0710678118654" y="397.0710678118654" as="targetPoint" />
          </mxGeometry>
        </mxCell>
        <mxCell id="vLFiFbukNMR0kvkJJkpE-228" value="rg" style="ellipse;whiteSpace=wrap;html=1;fillColor=#050505;strokeColor=#FFFFFF;fontColor=#F7F7F7;" parent="1" vertex="1">
          <mxGeometry x="578.5" y="510" width="20" height="20" as="geometry" />
        </mxCell>
        <mxCell id="vLFiFbukNMR0kvkJJkpE-229" style="edgeStyle=none;rounded=0;orthogonalLoop=1;jettySize=auto;html=1;entryX=0.5;entryY=1;entryDx=0;entryDy=0;" parent="1" source="vLFiFbukNMR0kvkJJkpE-230" target="vLFiFbukNMR0kvkJJkpE-228" edge="1">
          <mxGeometry relative="1" as="geometry" />
        </mxCell>
        <mxCell id="vLFiFbukNMR0kvkJJkpE-230" value="lj" style="ellipse;whiteSpace=wrap;html=1;" parent="1" vertex="1">
          <mxGeometry x="618.5" y="550" width="20" height="20" as="geometry" />
        </mxCell>
        <mxCell id="vLFiFbukNMR0kvkJJkpE-231" style="edgeStyle=none;rounded=0;orthogonalLoop=1;jettySize=auto;html=1;entryX=1;entryY=1;entryDx=0;entryDy=0;" parent="1" source="vLFiFbukNMR0kvkJJkpE-233" target="vLFiFbukNMR0kvkJJkpE-230" edge="1">
          <mxGeometry relative="1" as="geometry" />
        </mxCell>
        <mxCell id="vLFiFbukNMR0kvkJJkpE-261" style="edgeStyle=none;rounded=0;orthogonalLoop=1;jettySize=auto;html=1;entryX=0.958;entryY=0.713;entryDx=0;entryDy=0;entryPerimeter=0;fillColor=#0050ef;strokeColor=#001DBC;" parent="1" source="vLFiFbukNMR0kvkJJkpE-233" target="vLFiFbukNMR0kvkJJkpE-228" edge="1">
          <mxGeometry relative="1" as="geometry" />
        </mxCell>
        <mxCell id="vLFiFbukNMR0kvkJJkpE-233" value="bj" style="ellipse;whiteSpace=wrap;html=1;" parent="1" vertex="1">
          <mxGeometry x="668.5" y="560" width="20" height="20" as="geometry" />
        </mxCell>
        <mxCell id="vLFiFbukNMR0kvkJJkpE-234" style="edgeStyle=none;rounded=0;orthogonalLoop=1;jettySize=auto;html=1;entryX=1;entryY=0.5;entryDx=0;entryDy=0;" parent="1" source="vLFiFbukNMR0kvkJJkpE-235" target="vLFiFbukNMR0kvkJJkpE-233" edge="1">
          <mxGeometry relative="1" as="geometry" />
        </mxCell>
        <mxCell id="vLFiFbukNMR0kvkJJkpE-235" value="kk" style="ellipse;whiteSpace=wrap;html=1;" parent="1" vertex="1">
          <mxGeometry x="712.5" y="552" width="20" height="20" as="geometry" />
        </mxCell>
        <mxCell id="vLFiFbukNMR0kvkJJkpE-236" style="edgeStyle=none;rounded=0;orthogonalLoop=1;jettySize=auto;html=1;entryX=1;entryY=0.5;entryDx=0;entryDy=0;" parent="1" source="vLFiFbukNMR0kvkJJkpE-237" target="vLFiFbukNMR0kvkJJkpE-235" edge="1">
          <mxGeometry relative="1" as="geometry" />
        </mxCell>
        <mxCell id="vLFiFbukNMR0kvkJJkpE-237" value="cp" style="ellipse;whiteSpace=wrap;html=1;" parent="1" vertex="1">
          <mxGeometry x="750.5" y="521" width="20" height="20" as="geometry" />
        </mxCell>
        <mxCell id="vLFiFbukNMR0kvkJJkpE-238" style="edgeStyle=none;rounded=0;orthogonalLoop=1;jettySize=auto;html=1;entryX=1;entryY=0;entryDx=0;entryDy=0;" parent="1" source="vLFiFbukNMR0kvkJJkpE-240" target="vLFiFbukNMR0kvkJJkpE-237" edge="1">
          <mxGeometry relative="1" as="geometry" />
        </mxCell>
        <mxCell id="vLFiFbukNMR0kvkJJkpE-240" value="sm" style="ellipse;whiteSpace=wrap;html=1;" parent="1" vertex="1">
          <mxGeometry x="767.5" y="479" width="20" height="20" as="geometry" />
        </mxCell>
        <mxCell id="vLFiFbukNMR0kvkJJkpE-241" style="edgeStyle=none;rounded=0;orthogonalLoop=1;jettySize=auto;html=1;entryX=0.5;entryY=0;entryDx=0;entryDy=0;" parent="1" source="vLFiFbukNMR0kvkJJkpE-242" target="vLFiFbukNMR0kvkJJkpE-240" edge="1">
          <mxGeometry relative="1" as="geometry" />
        </mxCell>
        <mxCell id="vLFiFbukNMR0kvkJJkpE-258" style="edgeStyle=none;rounded=0;orthogonalLoop=1;jettySize=auto;html=1;entryX=0.974;entryY=0.301;entryDx=0;entryDy=0;entryPerimeter=0;fillColor=#0050ef;strokeColor=#001DBC;" parent="1" source="vLFiFbukNMR0kvkJJkpE-242" target="vLFiFbukNMR0kvkJJkpE-228" edge="1">
          <mxGeometry relative="1" as="geometry" />
        </mxCell>
        <mxCell id="vLFiFbukNMR0kvkJJkpE-242" value="nf" style="ellipse;whiteSpace=wrap;html=1;" parent="1" vertex="1">
          <mxGeometry x="766.5" y="434" width="20" height="20" as="geometry" />
        </mxCell>
        <mxCell id="vLFiFbukNMR0kvkJJkpE-243" style="edgeStyle=none;rounded=0;orthogonalLoop=1;jettySize=auto;html=1;entryX=0.5;entryY=0;entryDx=0;entryDy=0;" parent="1" source="vLFiFbukNMR0kvkJJkpE-244" target="vLFiFbukNMR0kvkJJkpE-242" edge="1">
          <mxGeometry relative="1" as="geometry" />
        </mxCell>
        <mxCell id="vLFiFbukNMR0kvkJJkpE-244" value="fl" style="ellipse;whiteSpace=wrap;html=1;" parent="1" vertex="1">
          <mxGeometry x="748.5" y="397" width="20" height="20" as="geometry" />
        </mxCell>
        <mxCell id="vLFiFbukNMR0kvkJJkpE-245" value="nh" style="ellipse;whiteSpace=wrap;html=1;" parent="1" vertex="1">
          <mxGeometry x="718.5" y="370" width="20" height="20" as="geometry" />
        </mxCell>
        <mxCell id="vLFiFbukNMR0kvkJJkpE-246" style="edgeStyle=none;rounded=0;orthogonalLoop=1;jettySize=auto;html=1;entryX=0;entryY=0;entryDx=0;entryDy=0;" parent="1" source="vLFiFbukNMR0kvkJJkpE-248" target="vLFiFbukNMR0kvkJJkpE-244" edge="1">
          <mxGeometry relative="1" as="geometry" />
        </mxCell>
        <mxCell id="vLFiFbukNMR0kvkJJkpE-256" style="edgeStyle=none;rounded=0;orthogonalLoop=1;jettySize=auto;html=1;entryX=0.75;entryY=0.064;entryDx=0;entryDy=0;entryPerimeter=0;fillColor=#0050ef;strokeColor=#001DBC;" parent="1" source="vLFiFbukNMR0kvkJJkpE-248" target="vLFiFbukNMR0kvkJJkpE-228" edge="1">
          <mxGeometry relative="1" as="geometry" />
        </mxCell>
        <mxCell id="vLFiFbukNMR0kvkJJkpE-248" value="jg" style="ellipse;whiteSpace=wrap;html=1;" parent="1" vertex="1">
          <mxGeometry x="718.5" y="370" width="20" height="20" as="geometry" />
        </mxCell>
        <mxCell id="vLFiFbukNMR0kvkJJkpE-254" style="edgeStyle=none;rounded=0;orthogonalLoop=1;jettySize=auto;html=1;exitX=1;exitY=1;exitDx=0;exitDy=0;entryX=0.405;entryY=0.023;entryDx=0;entryDy=0;entryPerimeter=0;fillColor=#0050ef;strokeColor=#001DBC;" parent="1" source="vLFiFbukNMR0kvkJJkpE-223" target="vLFiFbukNMR0kvkJJkpE-228" edge="1">
          <mxGeometry relative="1" as="geometry" />
        </mxCell>
        <mxCell id="vLFiFbukNMR0kvkJJkpE-255" style="edgeStyle=none;rounded=0;orthogonalLoop=1;jettySize=auto;html=1;entryX=0.572;entryY=-0.003;entryDx=0;entryDy=0;entryPerimeter=0;fillColor=#0050ef;strokeColor=#001DBC;" parent="1" source="vLFiFbukNMR0kvkJJkpE-217" target="vLFiFbukNMR0kvkJJkpE-228" edge="1">
          <mxGeometry relative="1" as="geometry" />
        </mxCell>
        <mxCell id="vLFiFbukNMR0kvkJJkpE-257" style="edgeStyle=none;rounded=0;orthogonalLoop=1;jettySize=auto;html=1;entryX=0.892;entryY=0.171;entryDx=0;entryDy=0;entryPerimeter=0;fillColor=#0050ef;strokeColor=#001DBC;" parent="1" source="vLFiFbukNMR0kvkJJkpE-244" target="vLFiFbukNMR0kvkJJkpE-228" edge="1">
          <mxGeometry relative="1" as="geometry" />
        </mxCell>
        <mxCell id="vLFiFbukNMR0kvkJJkpE-259" style="edgeStyle=none;rounded=0;orthogonalLoop=1;jettySize=auto;html=1;entryX=1.013;entryY=0.429;entryDx=0;entryDy=0;entryPerimeter=0;fillColor=#0050ef;strokeColor=#001DBC;" parent="1" source="vLFiFbukNMR0kvkJJkpE-240" target="vLFiFbukNMR0kvkJJkpE-228" edge="1">
          <mxGeometry relative="1" as="geometry" />
        </mxCell>
        <mxCell id="vLFiFbukNMR0kvkJJkpE-260" style="edgeStyle=none;rounded=0;orthogonalLoop=1;jettySize=auto;html=1;entryX=1.011;entryY=0.555;entryDx=0;entryDy=0;entryPerimeter=0;fillColor=#0050ef;strokeColor=#001DBC;" parent="1" source="vLFiFbukNMR0kvkJJkpE-235" target="vLFiFbukNMR0kvkJJkpE-228" edge="1">
          <mxGeometry relative="1" as="geometry" />
        </mxCell>
        <mxCell id="vLFiFbukNMR0kvkJJkpE-267" style="edgeStyle=none;rounded=0;orthogonalLoop=1;jettySize=auto;html=1;entryX=0.5;entryY=0;entryDx=0;entryDy=0;" parent="1" source="vLFiFbukNMR0kvkJJkpE-265" target="vLFiFbukNMR0kvkJJkpE-266" edge="1">
          <mxGeometry relative="1" as="geometry" />
        </mxCell>
        <mxCell id="vLFiFbukNMR0kvkJJkpE-265" value="df" style="ellipse;whiteSpace=wrap;html=1;fillColor=#050505;strokeColor=#FFFFFF;fontColor=#F7F7F7;" parent="1" vertex="1">
          <mxGeometry x="430" y="350" width="20" height="20" as="geometry" />
        </mxCell>
        <mxCell id="vLFiFbukNMR0kvkJJkpE-266" value="rx" style="ellipse;whiteSpace=wrap;html=1;" parent="1" vertex="1">
          <mxGeometry x="430" y="410" width="20" height="20" as="geometry" />
        </mxCell>
        <mxCell id="vLFiFbukNMR0kvkJJkpE-269" style="edgeStyle=none;rounded=0;orthogonalLoop=1;jettySize=auto;html=1;entryX=0;entryY=0;entryDx=0;entryDy=0;exitX=1;exitY=1;exitDx=0;exitDy=0;" parent="1" source="gAliYxZheVsyIceWktLf-1" target="vLFiFbukNMR0kvkJJkpE-265" edge="1">
          <mxGeometry relative="1" as="geometry">
            <mxPoint x="417.07106781186553" y="337.07106781186553" as="sourcePoint" />
          </mxGeometry>
        </mxCell>
        <mxCell id="vLFiFbukNMR0kvkJJkpE-273" style="edgeStyle=none;rounded=0;orthogonalLoop=1;jettySize=auto;html=1;entryX=0;entryY=1;entryDx=0;entryDy=0;exitX=1;exitY=0;exitDx=0;exitDy=0;" parent="1" source="gAliYxZheVsyIceWktLf-4" target="vLFiFbukNMR0kvkJJkpE-265" edge="1">
          <mxGeometry relative="1" as="geometry">
            <mxPoint x="417.2158215229514" y="382.07671178203316" as="sourcePoint" />
          </mxGeometry>
        </mxCell>
        <mxCell id="vLFiFbukNMR0kvkJJkpE-276" style="edgeStyle=none;rounded=0;orthogonalLoop=1;jettySize=auto;html=1;entryX=1;entryY=0;entryDx=0;entryDy=0;exitX=0;exitY=1;exitDx=0;exitDy=0;" parent="1" source="gAliYxZheVsyIceWktLf-2" target="vLFiFbukNMR0kvkJJkpE-265" edge="1">
          <mxGeometry relative="1" as="geometry">
            <mxPoint x="462.92893218813447" y="337.0710678118654" as="sourcePoint" />
          </mxGeometry>
        </mxCell>
        <mxCell id="vLFiFbukNMR0kvkJJkpE-279" style="edgeStyle=none;rounded=0;orthogonalLoop=1;jettySize=auto;html=1;entryX=1;entryY=1;entryDx=0;entryDy=0;exitX=0;exitY=0;exitDx=0;exitDy=0;" parent="1" source="gAliYxZheVsyIceWktLf-3" target="vLFiFbukNMR0kvkJJkpE-265" edge="1">
          <mxGeometry relative="1" as="geometry">
            <mxPoint x="462.9289321881346" y="382.9289321881346" as="sourcePoint" />
          </mxGeometry>
        </mxCell>
        <mxCell id="oAGGHr1ZUC0-JOIBPgDh-1" value="&lt;b&gt;Cycle:&lt;/b&gt;&amp;nbsp;3833" style="text;html=1;strokeColor=none;fillColor=none;align=center;verticalAlign=middle;whiteSpace=wrap;rounded=0;" parent="1" vertex="1">
          <mxGeometry x="508" y="505" width="60" height="30" as="geometry" />
        </mxCell>
        <mxCell id="oAGGHr1ZUC0-JOIBPgDh-2" value="&lt;b&gt;Cycle:&lt;/b&gt;&amp;nbsp;4021" style="text;html=1;strokeColor=none;fillColor=none;align=center;verticalAlign=middle;whiteSpace=wrap;rounded=0;" parent="1" vertex="1">
          <mxGeometry x="330" y="475" width="60" height="30" as="geometry" />
        </mxCell>
        <mxCell id="oAGGHr1ZUC0-JOIBPgDh-3" value="&lt;b&gt;Cycle:&lt;/b&gt;&amp;nbsp;4051" style="text;html=1;strokeColor=none;fillColor=none;align=center;verticalAlign=middle;whiteSpace=wrap;rounded=0;" parent="1" vertex="1">
          <mxGeometry x="320" y="154" width="60" height="30" as="geometry" />
        </mxCell>
        <mxCell id="oAGGHr1ZUC0-JOIBPgDh-4" value="&lt;b&gt;Cycle:&lt;/b&gt;&amp;nbsp;4057" style="text;html=1;strokeColor=none;fillColor=none;align=center;verticalAlign=middle;whiteSpace=wrap;rounded=0;" parent="1" vertex="1">
          <mxGeometry x="508" y="185" width="60" height="30" as="geometry" />
        </mxCell>
        <mxCell id="gAliYxZheVsyIceWktLf-1" value="xl" style="rhombus;whiteSpace=wrap;html=1;fillColor=#050505;strokeColor=#FFFFFF;fontColor=#F7F7F7;" parent="1" vertex="1">
          <mxGeometry x="398.5" y="316" width="23" height="24" as="geometry" />
        </mxCell>
        <mxCell id="gAliYxZheVsyIceWktLf-2" value="xp" style="rhombus;whiteSpace=wrap;html=1;fillColor=#050505;strokeColor=#FFFFFF;fontColor=#F7F7F7;" parent="1" vertex="1">
          <mxGeometry x="458.5" y="316" width="23" height="24" as="geometry" />
        </mxCell>
        <mxCell id="gAliYxZheVsyIceWktLf-3" value="gp" style="rhombus;whiteSpace=wrap;html=1;fillColor=#050505;strokeColor=#FFFFFF;fontColor=#F7F7F7;" parent="1" vertex="1">
          <mxGeometry x="458.5" y="380" width="23" height="24" as="geometry" />
        </mxCell>
        <mxCell id="gAliYxZheVsyIceWktLf-4" value="ln" style="rhombus;whiteSpace=wrap;html=1;fillColor=#050505;strokeColor=#FFFFFF;fontColor=#F7F7F7;" parent="1" vertex="1">
          <mxGeometry x="402" y="373" width="23" height="24" as="geometry" />
        </mxCell>
        <mxCell id="gAliYxZheVsyIceWktLf-5" value="" style="ellipse;whiteSpace=wrap;html=1;" parent="1" vertex="1">
          <mxGeometry x="88.5" y="610" width="20" height="20" as="geometry" />
        </mxCell>
        <mxCell id="gAliYxZheVsyIceWktLf-6" value="" style="ellipse;whiteSpace=wrap;html=1;fillColor=#050505;strokeColor=#FFFFFF;fontColor=#F7F7F7;" parent="1" vertex="1">
          <mxGeometry x="170.5" y="610" width="20" height="20" as="geometry" />
        </mxCell>
        <mxCell id="gAliYxZheVsyIceWktLf-7" value="" style="rhombus;whiteSpace=wrap;html=1;fillColor=#050505;strokeColor=#FFFFFF;fontColor=#F7F7F7;" parent="1" vertex="1">
          <mxGeometry x="270.5" y="608" width="23" height="24" as="geometry" />
        </mxCell>
        <mxCell id="gAliYxZheVsyIceWktLf-8" value="FlipFlop" style="text;html=1;align=center;verticalAlign=middle;resizable=0;points=[];autosize=1;strokeColor=none;fillColor=none;" parent="1" vertex="1">
          <mxGeometry x="98.5" y="605" width="70" height="30" as="geometry" />
        </mxCell>
        <mxCell id="gAliYxZheVsyIceWktLf-9" value="Conjunction" style="text;html=1;align=center;verticalAlign=middle;resizable=0;points=[];autosize=1;strokeColor=none;fillColor=none;" parent="1" vertex="1">
          <mxGeometry x="180.5" y="605" width="90" height="30" as="geometry" />
        </mxCell>
        <mxCell id="gAliYxZheVsyIceWktLf-10" value="Inverter" style="text;html=1;align=center;verticalAlign=middle;resizable=0;points=[];autosize=1;strokeColor=none;fillColor=none;" parent="1" vertex="1">
          <mxGeometry x="291.5" y="605" width="60" height="30" as="geometry" />
        </mxCell>
        <mxCell id="dhrIU94HaX0zE7o7Z2QU-2" style="edgeStyle=orthogonalEdgeStyle;rounded=0;orthogonalLoop=1;jettySize=auto;html=1;exitX=0.5;exitY=1;exitDx=0;exitDy=0;entryX=0.5;entryY=0;entryDx=0;entryDy=0;" edge="1" parent="1" source="dhrIU94HaX0zE7o7Z2QU-1" target="vLFiFbukNMR0kvkJJkpE-1">
          <mxGeometry relative="1" as="geometry" />
        </mxCell>
        <mxCell id="dhrIU94HaX0zE7o7Z2QU-1" value="button" style="rounded=0;whiteSpace=wrap;html=1;" vertex="1" parent="1">
          <mxGeometry x="419" y="70" width="42" height="20" as="geometry" />
        </mxCell>
      </root>
    </mxGraphModel>
  </diagram>
</mxfile>
